<svg width="106" height="106" viewBox="0 0 106 106" fill="none" xmlns="http://www.w3.org/2000/svg">
<path d="M48.5834 81.7085V65.4463H55.2084V81.7085H48.5834Z" fill="#C55D5D"/>
<path d="M48.5834 81.7085V65.4463H55.2084V81.7085H48.5834Z" fill="url(#paint0_linear_771_118)"/>
<path d="M62.9507 77.292C66.6172 77.2918 70.1447 78.6945 72.8097 81.2125C75.4748 83.7306 77.0752 87.1729 77.2828 90.8335L77.3049 91.6462V93.8545C77.3048 94.655 77.015 95.4283 76.4888 96.0316C75.9627 96.6349 75.2359 97.0272 74.4429 97.1361L73.9924 97.167H29.8125C29.012 97.167 28.2387 96.8771 27.6354 96.3509C27.0321 95.8248 26.6398 95.098 26.5309 94.305L26.5 93.8545V91.6462C26.4998 87.9797 27.9025 84.4522 30.4205 81.7871C32.9386 79.1221 36.3809 77.5216 40.0415 77.3141L40.8542 77.292H62.9507Z" fill="#D9D9D9"/>
<path d="M62.9507 77.292C66.6172 77.2918 70.1447 78.6945 72.8097 81.2125C75.4748 83.7306 77.0752 87.1729 77.2828 90.8335L77.3049 91.6462V93.8545C77.3048 94.655 77.015 95.4283 76.4888 96.0316C75.9627 96.6349 75.2359 97.0272 74.4429 97.1361L73.9924 97.167H29.8125C29.012 97.167 28.2387 96.8771 27.6354 96.3509C27.0321 95.8248 26.6398 95.098 26.5309 94.305L26.5 93.8545V91.6462C26.4998 87.9797 27.9025 84.4522 30.4205 81.7871C32.9386 79.1221 36.3809 77.5216 40.0415 77.3141L40.8542 77.292H62.9507Z" fill="url(#paint1_linear_771_118)"/>
<path fill-rule="evenodd" clip-rule="evenodd" d="M13.25 25.3962C13.25 21.1297 16.7127 17.667 20.9792 17.667H34.2292C38.4957 17.667 41.9583 21.1297 41.9583 25.3962V38.6462C41.9583 42.4531 40.446 46.1042 37.7541 48.7961C35.0622 51.488 31.4111 53.0003 27.6042 53.0003C23.7972 53.0003 20.1462 51.488 17.4542 48.7961C14.7623 46.1042 13.25 42.4531 13.25 38.6462L13.25 25.3962ZM20.9792 24.292C20.6863 24.292 20.4055 24.4083 20.1984 24.6154C19.9913 24.8225 19.875 25.1033 19.875 25.3962V38.6462C19.875 40.6961 20.6893 42.662 22.1388 44.1115C23.5883 45.561 25.5543 46.3753 27.6042 46.3753C29.6541 46.3753 31.62 45.561 33.0695 44.1115C34.519 42.662 35.3333 40.6961 35.3333 38.6462V25.3962C35.3333 25.1033 35.217 24.8225 35.0099 24.6154C34.8029 24.4083 34.522 24.292 34.2292 24.292H20.9792Z" fill="#D96A6A"/>
<path fill-rule="evenodd" clip-rule="evenodd" d="M13.25 25.3962C13.25 21.1297 16.7127 17.667 20.9792 17.667H34.2292C38.4957 17.667 41.9583 21.1297 41.9583 25.3962V38.6462C41.9583 42.4531 40.446 46.1042 37.7541 48.7961C35.0622 51.488 31.4111 53.0003 27.6042 53.0003C23.7972 53.0003 20.1462 51.488 17.4542 48.7961C14.7623 46.1042 13.25 42.4531 13.25 38.6462L13.25 25.3962ZM20.9792 24.292C20.6863 24.292 20.4055 24.4083 20.1984 24.6154C19.9913 24.8225 19.875 25.1033 19.875 25.3962V38.6462C19.875 40.6961 20.6893 42.662 22.1388 44.1115C23.5883 45.561 25.5543 46.3753 27.6042 46.3753C29.6541 46.3753 31.62 45.561 33.0695 44.1115C34.519 42.662 35.3333 40.6961 35.3333 38.6462V25.3962C35.3333 25.1033 35.217 24.8225 35.0099 24.6154C34.8029 24.4083 34.522 24.292 34.2292 24.292H20.9792Z" fill="url(#paint2_linear_771_118)"/>
<path fill-rule="evenodd" clip-rule="evenodd" d="M61.8333 25.3962C61.8333 21.1297 65.2959 17.667 69.5624 17.667H82.8124C87.0789 17.667 90.5416 21.1297 90.5416 25.3962V38.6462C90.5416 42.4531 89.0293 46.1042 86.3374 48.7961C83.6454 51.488 79.9944 53.0003 76.1874 53.0003C72.3805 53.0003 68.7294 51.488 66.0375 48.7961C63.3456 46.1042 61.8333 42.4531 61.8333 38.6462V25.3962ZM69.5624 24.292C69.2696 24.292 68.9887 24.4083 68.7817 24.6154C68.5746 24.8225 68.4583 25.1033 68.4583 25.3962V38.6462C68.4583 40.6961 69.2726 42.662 70.7221 44.1115C72.1716 45.561 74.1375 46.3753 76.1874 46.3753C78.2373 46.3753 80.2033 45.561 81.6528 44.1115C83.1023 42.662 83.9166 40.6961 83.9166 38.6462V25.3962C83.9166 25.1033 83.8003 24.8225 83.5932 24.6154C83.3861 24.4083 83.1053 24.292 82.8124 24.292H69.5624Z" fill="#D96A6A"/>
<path fill-rule="evenodd" clip-rule="evenodd" d="M61.8333 25.3962C61.8333 21.1297 65.2959 17.667 69.5624 17.667H82.8124C87.0789 17.667 90.5416 21.1297 90.5416 25.3962V38.6462C90.5416 42.4531 89.0293 46.1042 86.3374 48.7961C83.6454 51.488 79.9944 53.0003 76.1874 53.0003C72.3805 53.0003 68.7294 51.488 66.0375 48.7961C63.3456 46.1042 61.8333 42.4531 61.8333 38.6462V25.3962ZM69.5624 24.292C69.2696 24.292 68.9887 24.4083 68.7817 24.6154C68.5746 24.8225 68.4583 25.1033 68.4583 25.3962V38.6462C68.4583 40.6961 69.2726 42.662 70.7221 44.1115C72.1716 45.561 74.1375 46.3753 76.1874 46.3753C78.2373 46.3753 80.2033 45.561 81.6528 44.1115C83.1023 42.662 83.9166 40.6961 83.9166 38.6462V25.3962C83.9166 25.1033 83.8003 24.8225 83.5932 24.6154C83.3861 24.4083 83.1053 24.292 82.8124 24.292H69.5624Z" fill="url(#paint3_linear_771_118)"/>
<path d="M36.4375 8.8335C33.8019 8.8335 31.2743 9.88048 29.4106 11.7441C27.547 13.6078 26.5 16.1354 26.5 18.771L26.5 45.271C26.5 52.0064 29.1756 58.4659 33.9383 63.2285C38.7009 67.9912 45.1604 70.6668 51.8958 70.6668C58.6312 70.6668 65.0908 67.9912 69.8534 63.2285C74.6161 58.4659 77.2917 52.0064 77.2917 45.271V18.771C77.2917 16.1354 76.2447 13.6078 74.3811 11.7441C72.5174 9.88048 69.9898 8.8335 67.3542 8.8335L36.4375 8.8335Z" fill="black"/>
<path d="M36.4375 8.8335C33.8019 8.8335 31.2743 9.88048 29.4106 11.7441C27.547 13.6078 26.5 16.1354 26.5 18.771L26.5 45.271C26.5 52.0064 29.1756 58.4659 33.9383 63.2285C38.7009 67.9912 45.1604 70.6668 51.8958 70.6668C58.6312 70.6668 65.0908 67.9912 69.8534 63.2285C74.6161 58.4659 77.2917 52.0064 77.2917 45.271V18.771C77.2917 16.1354 76.2447 13.6078 74.3811 11.7441C72.5174 9.88048 69.9898 8.8335 67.3542 8.8335L36.4375 8.8335Z" fill="url(#paint4_radial_771_118)"/>
<defs>
<linearGradient id="paint0_linear_771_118" x1="45.2709" y1="62.1956" x2="71.1349" y2="98.4211" gradientUnits="userSpaceOnUse">
<stop offset="0.174" stop-color="#554F4E"/>
<stop offset="0.563" stop-color="#CBCBCA" stop-opacity="0.988"/>
<stop offset="0.853" stop-color="#554F4E"/>
</linearGradient>
<linearGradient id="paint1_linear_771_118" x1="170.448" y1="156.792" x2="139.279" y2="46.9053" gradientUnits="userSpaceOnUse">
<stop offset="0.184" stop-color="#CBCBCA"/>
<stop offset="1" stop-color="#6D6766"/>
</linearGradient>
<linearGradient id="paint2_linear_771_118" x1="34.7813" y1="32.3877" x2="6.07291" y2="32.3877" gradientUnits="userSpaceOnUse">
<stop stop-color="#554F4E"/>
<stop offset="1" stop-color="#CBCBCA" stop-opacity="0.988"/>
</linearGradient>
<linearGradient id="paint3_linear_771_118" x1="71.4042" y1="32.3877" x2="97.7187" y2="32.3877" gradientUnits="userSpaceOnUse">
<stop stop-color="#554F4E"/>
<stop offset="1" stop-color="#CBCBCA" stop-opacity="0.988"/>
</linearGradient>
<radialGradient id="paint4_radial_771_118" cx="0" cy="0" r="1" gradientUnits="userSpaceOnUse" gradientTransform="translate(77.2882 67.9777) rotate(-131.738) scale(72.0566 77.2661)">
<stop stop-color="#554F4E"/>
<stop offset="1" stop-color="#CBCBCA"/>
</radialGradient>
</defs>
</svg>
