<svg width="104" height="104" viewBox="0 0 104 104" fill="none" xmlns="http://www.w3.org/2000/svg">
<path d="M47.6737 80.1176V64.188H54.1632V80.1176H47.6737Z" fill="#C55D5D"/>
<path d="M47.6737 80.1176V64.188H54.1632V80.1176H47.6737Z" fill="url(#paint0_linear_768_158)"/>
<path d="M61.7472 75.791C65.3387 75.7908 68.7941 77.1649 71.4046 79.6314C74.0151 82.0979 75.5828 85.4699 75.7862 89.0556L75.8078 89.8516V92.0148C75.8078 92.7989 75.5238 93.5564 75.0084 94.1474C74.4931 94.7383 73.7812 95.1226 73.0043 95.2292L72.5631 95.2595H29.2867C28.5026 95.2595 27.7451 94.9755 27.1542 94.4602C26.5632 93.9448 26.1789 93.2329 26.0723 92.4561L26.042 92.0148V89.8516C26.0418 86.2602 27.4158 82.8047 29.8824 80.1942C32.3489 77.5837 35.7208 76.016 39.3065 75.8126L40.1026 75.791H61.7472Z" fill="#D9D9D9"/>
<path d="M61.7472 75.791C65.3387 75.7908 68.7941 77.1649 71.4046 79.6314C74.0151 82.0979 75.5828 85.4699 75.7862 89.0556L75.8078 89.8516V92.0148C75.8078 92.7989 75.5238 93.5564 75.0084 94.1474C74.4931 94.7383 73.7812 95.1226 73.0043 95.2292L72.5631 95.2595H29.2867C28.5026 95.2595 27.7451 94.9755 27.1542 94.4602C26.5632 93.9448 26.1789 93.2329 26.0723 92.4561L26.042 92.0148V89.8516C26.0418 86.2602 27.4158 82.8047 29.8824 80.1942C32.3489 77.5837 35.7208 76.016 39.3065 75.8126L40.1026 75.791H61.7472Z" fill="url(#paint1_linear_768_158)"/>
<path fill-rule="evenodd" clip-rule="evenodd" d="M13.063 24.9568C13.063 20.7776 16.4548 17.3857 20.6341 17.3857H33.6131C37.7923 17.3857 41.1842 20.7776 41.1842 24.9568V37.9358C41.1842 41.6649 39.7028 45.2413 37.0659 47.8782C34.4291 50.5151 30.8527 51.9964 27.1236 51.9964C23.3945 51.9964 19.8181 50.5151 17.1812 47.8782C14.5444 45.2413 13.063 41.6649 13.063 37.9358L13.063 24.9568ZM20.6341 23.8752C20.3472 23.8752 20.0721 23.9892 19.8693 24.192C19.6664 24.3949 19.5525 24.67 19.5525 24.9568V37.9358C19.5525 39.9438 20.3502 41.8696 21.77 43.2894C23.1899 44.7093 25.1156 45.5069 27.1236 45.5069C29.1316 45.5069 31.0573 44.7093 32.4772 43.2894C33.897 41.8696 34.6947 39.9438 34.6947 37.9358V24.9568C34.6947 24.67 34.5807 24.3949 34.3779 24.192C34.1751 23.9892 33.9 23.8752 33.6131 23.8752H20.6341Z" fill="#D96A6A"/>
<path fill-rule="evenodd" clip-rule="evenodd" d="M13.063 24.9568C13.063 20.7776 16.4548 17.3857 20.6341 17.3857H33.6131C37.7923 17.3857 41.1842 20.7776 41.1842 24.9568V37.9358C41.1842 41.6649 39.7028 45.2413 37.0659 47.8782C34.4291 50.5151 30.8527 51.9964 27.1236 51.9964C23.3945 51.9964 19.8181 50.5151 17.1812 47.8782C14.5444 45.2413 13.063 41.6649 13.063 37.9358L13.063 24.9568ZM20.6341 23.8752C20.3472 23.8752 20.0721 23.9892 19.8693 24.192C19.6664 24.3949 19.5525 24.67 19.5525 24.9568V37.9358C19.5525 39.9438 20.3502 41.8696 21.77 43.2894C23.1899 44.7093 25.1156 45.5069 27.1236 45.5069C29.1316 45.5069 31.0573 44.7093 32.4772 43.2894C33.897 41.8696 34.6947 39.9438 34.6947 37.9358V24.9568C34.6947 24.67 34.5807 24.3949 34.3779 24.192C34.1751 23.9892 33.9 23.8752 33.6131 23.8752H20.6341Z" fill="url(#paint2_linear_768_158)"/>
<path fill-rule="evenodd" clip-rule="evenodd" d="M60.6527 24.9568C60.6527 20.7776 64.0446 17.3857 68.2238 17.3857H81.2028C85.3821 17.3857 88.7739 20.7776 88.7739 24.9568V37.9358C88.7739 41.6649 87.2925 45.2413 84.6557 47.8782C82.0188 50.5151 78.4424 51.9964 74.7133 51.9964C70.9842 51.9964 67.4078 50.5151 64.771 47.8782C62.1341 45.2413 60.6527 41.6649 60.6527 37.9358V24.9568ZM68.2238 23.8752C67.9369 23.8752 67.6618 23.9892 67.459 24.192C67.2562 24.3949 67.1422 24.67 67.1422 24.9568V37.9358C67.1422 39.9438 67.9399 41.8696 69.3597 43.2894C70.7796 44.7093 72.7053 45.5069 74.7133 45.5069C76.7213 45.5069 78.647 44.7093 80.0669 43.2894C81.4867 41.8696 82.2844 39.9438 82.2844 37.9358V24.9568C82.2844 24.67 82.1705 24.3949 81.9676 24.192C81.7648 23.9892 81.4897 23.8752 81.2028 23.8752H68.2238Z" fill="#D96A6A"/>
<path fill-rule="evenodd" clip-rule="evenodd" d="M60.6527 24.9568C60.6527 20.7776 64.0446 17.3857 68.2238 17.3857H81.2028C85.3821 17.3857 88.7739 20.7776 88.7739 24.9568V37.9358C88.7739 41.6649 87.2925 45.2413 84.6557 47.8782C82.0188 50.5151 78.4424 51.9964 74.7133 51.9964C70.9842 51.9964 67.4078 50.5151 64.771 47.8782C62.1341 45.2413 60.6527 41.6649 60.6527 37.9358V24.9568ZM68.2238 23.8752C67.9369 23.8752 67.6618 23.9892 67.459 24.192C67.2562 24.3949 67.1422 24.67 67.1422 24.9568V37.9358C67.1422 39.9438 67.9399 41.8696 69.3597 43.2894C70.7796 44.7093 72.7053 45.5069 74.7133 45.5069C76.7213 45.5069 78.647 44.7093 80.0669 43.2894C81.4867 41.8696 82.2844 39.9438 82.2844 37.9358V24.9568C82.2844 24.67 82.1705 24.3949 81.9676 24.192C81.7648 23.9892 81.4897 23.8752 81.2028 23.8752H68.2238Z" fill="url(#paint3_linear_768_158)"/>
<path d="M35.7763 8.73291C33.1946 8.73291 30.7186 9.75848 28.8931 11.584C27.0676 13.4095 26.042 15.8855 26.042 18.4672L26.042 44.4252C26.042 51.0228 28.6629 57.3502 33.3281 62.0155C37.9934 66.6807 44.3208 69.3016 50.9184 69.3016C57.5161 69.3016 63.8435 66.6807 68.5087 62.0155C73.174 57.3502 75.7949 51.0228 75.7949 44.4252V18.4672C75.7949 15.8855 74.7693 13.4095 72.9438 11.584C71.1183 9.75848 68.6423 8.73291 66.0606 8.73291L35.7763 8.73291Z" fill="black"/>
<path d="M35.7763 8.73291C33.1946 8.73291 30.7186 9.75848 28.8931 11.584C27.0676 13.4095 26.042 15.8855 26.042 18.4672L26.042 44.4252C26.042 51.0228 28.6629 57.3502 33.3281 62.0155C37.9934 66.6807 44.3208 69.3016 50.9184 69.3016C57.5161 69.3016 63.8435 66.6807 68.5087 62.0155C73.174 57.3502 75.7949 51.0228 75.7949 44.4252V18.4672C75.7949 15.8855 74.7693 13.4095 72.9438 11.584C71.1183 9.75848 68.6423 8.73291 66.0606 8.73291L35.7763 8.73291Z" fill="url(#paint4_radial_768_158)"/>
<defs>
<linearGradient id="paint0_linear_768_158" x1="44.429" y1="61.0038" x2="69.764" y2="96.4884" gradientUnits="userSpaceOnUse">
<stop offset="0.174" stop-color="#EB4824"/>
<stop offset="0.563" stop-color="#FF921F" stop-opacity="0.988"/>
<stop offset="0.853" stop-color="#EB4824"/>
</linearGradient>
<linearGradient id="paint1_linear_768_158" x1="167.046" y1="153.665" x2="136.515" y2="46.0258" gradientUnits="userSpaceOnUse">
<stop offset="0.184" stop-color="#FFCD0F"/>
<stop offset="1" stop-color="#FF6F47"/>
</linearGradient>
<linearGradient id="paint2_linear_768_158" x1="34.1539" y1="31.8054" x2="6.03269" y2="31.8054" gradientUnits="userSpaceOnUse">
<stop stop-color="#EB4824"/>
<stop offset="1" stop-color="#FFCD0F" stop-opacity="0.988"/>
</linearGradient>
<linearGradient id="paint3_linear_768_158" x1="70.0279" y1="31.8054" x2="95.8042" y2="31.8054" gradientUnits="userSpaceOnUse">
<stop stop-color="#EB4824"/>
<stop offset="1" stop-color="#FFCD0F" stop-opacity="0.988"/>
</linearGradient>
<radialGradient id="paint4_radial_768_158" cx="0" cy="0" r="1" gradientUnits="userSpaceOnUse" gradientTransform="translate(75.7915 66.6675) rotate(-131.738) scale(70.5829 75.6858)">
<stop stop-color="#FF6F47"/>
<stop offset="1" stop-color="#FFCD0F"/>
</radialGradient>
</defs>
</svg>
